<?xml version="1.0" encoding="UTF-8" standalone="no"?>
<svg xmlns="http://www.w3.org/2000/svg" height="167px" width="566px" version="1.1" xmlns:xlink="http://www.w3.org/1999/xlink" viewBox="0 0 566 167">
   <path fill="#4D4D4D" d="m179.53 51.949c-8.07-0.013-14.77 1.642-17.36 2.545l-2.67 14.401c0 0.053 13.28-3.542 19.13-3.33 9.68 0.348 10.58 3.702 10.41 8.229 0.16 0.265-2.5-4.091-10.88-4.237-10.58-0.182-25.49 3.743-25.47 19.701-0.29 17.952 13.4 23.232 22.73 23.322 8.38-0.15 12.32-3.17 14.47-4.79 2.83-2.96 6.07-5.93 9.15-9.502-2.92 5.312-5.45 8.982-8.09 11.782v2.38l12.75-2.15 0.09-34.641c-0.13-4.903 2.81-23.665-24.26-23.711v0.001zm-1.83 30.161c5.29 0.072 11.35 2.676 11.35 8.944 0.03 5.7-7.14 8.765-11.8 8.717-4.66-0.049-10.85-3.666-10.88-9.223 0.09-4.968 5.84-8.566 11.33-8.438zm34.49-26.959l-0.09 57.369 14.85-2.86 0.02-32.527c0.01-4.843 6.93-10.503 15.6-10.412 1.85-3.333 5.31-11.851 6.15-13.789-19.39-0.046-19.63 5.574-23.01 8.338-0.03-5.274-0.01-8.439-0.01-8.439l-13.51 2.322v-0.002zm83.55 7.532c-0.14-0.068-7.74-8.89-23.02-8.959-14.31-0.238-30.36 5.31-30.62 29.308 0.13 21.098 15.42 29.348 30.7 29.508 16.36 0.17 22.86-10.23 23.25-10.49-1.95-1.69-9.26-8.931-9.26-8.931s-4.56 6.501-13.42 6.583c-8.86 0.084-16.56-6.847-16.67-16.519-0.11-9.671 7.08-14.911 16.74-15.335 8.36-0.001 13.18 5.397 13.18 5.397l9.12-10.562zm18.72-27.611l-14.02 3.295 0.1 74.723 13.81-2.49 0.16-35.166c0.03-3.687 5.33-9.349 14.19-9.17 8.47 0.088 10.36 5.644 10.34 6.346l0.24 40.71 13.62-2.41 0.05-43.164c0.09-4.154-9.1-12.927-23.87-12.989-7.01 0.012-10.9 1.6-12.88 2.772-3.38 2.614-7.25 5.119-11.05 8.316 3.51-4.514 6.46-7.634 9.34-9.955l-0.03-20.816v-0.002z"/>
   <path fill="#1793D1" d="m364.76 37.017l6.38-1.583-0.77 75.336-6.48 1.09 0.87-74.843zm16.97 22.482l5.61-2.467-0.72 54.018-5.4 1.11 0.51-52.661zm-1.05-19.478l4.55-3.647 3.67 4.129-4.55 3.744-3.67-4.226zm17.12 18.495l6.38-1.29-0.13 11.293c-0.01 0.485 3.67-12.616 20.51-12.324 16.36 0.09 18.86 12.675 18.73 15.496l-0.37 39.709-5.59 1.2 0.53-39.219c0.08-1.146-2.4-10.832-13.96-10.868-11.55-0.034-19.68 8.342-19.74 13.693l-0.4 34.554-6.48 1.68 0.52-53.925v0.001zm100.63 53.164l-6.38 1.29 0.13-11.29c0.01-0.48-3.67 12.62-20.51 12.33-16.36-0.1-18.85-12.68-18.73-15.502l0.37-39.711 6.78-1.356-0.46 39.224c-0.01 1.072 1.14 10.985 12.7 11.025 11.55 0.03 19.75-6.92 19.95-17.385l0.36-30.948 6.32-1.596-0.53 53.919zm13.23-53.61l-4.51 3.47 16.78 22.245-18.6 25.705 4.68 3.49 17.49-23.872 17.35 24.432 4.43-3.47-18.6-26.122 15.43-21.126-4.59-3.911-14.07 19.549-15.79-20.39zm-427.85-57.445c-7.397 18.134-11.858 29.997-20.093 47.593 5.049 5.352 11.246 11.584 21.311 18.624-10.82-4.453-18.2-8.924-23.717-13.562-10.539 21.992-27.052 53.32-60.561 113.53 26.338-15.2 46.753-24.58 65.78-28.15-0.817-3.52-1.281-7.32-1.25-11.28l0.031-0.85c0.418-16.87 9.195-29.845 19.593-28.964s18.478 15.284 18.058 32.154c-0.07 3.18-0.43 6.23-1.06 9.06 18.82 3.68 39.02 13.03 65 28.03-5.12-9.43-9.7-17.93-14.06-26.03-6.88-5.33-14.05-12.27-28.69-19.78 10.06 2.62 17.26 5.63 22.88 9-44.4-82.668-47.993-93.651-63.223-129.37l0.001-0.00519zm473.68 107.75v-4.66h-1.74v-0.62h4.19v0.62h-1.75v4.66h-0.7zm3.18 0v-5.28h1.05l1.25 3.74c0.12 0.35 0.2 0.61 0.25 0.78 0.06-0.19 0.16-0.47 0.29-0.84l1.26-3.68h0.94v5.28h-0.67v-4.42l-1.54 4.42h-0.63l-1.53-4.5v4.5h-0.67zm-392.94 43.61v-4.55h-1.7v-0.61h4.09v0.61h-1.71v4.55h-0.68zm3.1 0v-5.16h1.03l1.22 3.66c0.12 0.34 0.2 0.59 0.25 0.76 0.06-0.19 0.15-0.46 0.28-0.83l1.23-3.59h0.92v5.16h-0.66v-4.32l-1.5 4.32h-0.61l-1.5-4.39v4.39h-0.66z"/>
</svg>
